<svg width="26" height="26" viewBox="0 0 26 26" fill="none" xmlns="http://www.w3.org/2000/svg">
<path d="M10.8125 12.9757H15.1377" stroke="#154367" stroke-width="2.16259" stroke-linecap="round" stroke-linejoin="round"/>
<path d="M10.8125 8.65051H15.1377" stroke="#154367" stroke-width="2.16259" stroke-linecap="round" stroke-linejoin="round"/>
<path d="M15.1377 22.7074V19.4635C15.1377 18.8899 14.9098 18.3399 14.5043 17.9343C14.0987 17.5287 13.5486 17.3009 12.9751 17.3009C12.4015 17.3009 11.8515 17.5287 11.4459 17.9343C11.0403 18.3399 10.8125 18.8899 10.8125 19.4635V22.7074" stroke="#154367" stroke-width="2.16259" stroke-linecap="round" stroke-linejoin="round"/>
<path d="M6.4873 10.8131H4.3247C3.75115 10.8131 3.20108 11.0409 2.79552 11.4465C2.38995 11.8521 2.16211 12.4021 2.16211 12.9757V20.5448C2.16211 21.1183 2.38995 21.6684 2.79552 22.074C3.20108 22.4795 3.75115 22.7074 4.3247 22.7074H21.6255C22.199 22.7074 22.7491 22.4795 23.1546 22.074C23.5602 21.6684 23.7881 21.1183 23.7881 20.5448V9.73181C23.7881 9.15825 23.5602 8.60819 23.1546 8.20262C22.7491 7.79706 22.199 7.56921 21.6255 7.56921H19.4629" stroke="#154367" stroke-width="2.16259" stroke-linecap="round" stroke-linejoin="round"/>
<path d="M6.4873 22.7074V5.40661C6.4873 4.83306 6.71515 4.28299 7.12071 3.87743C7.52628 3.47186 8.07634 3.24402 8.6499 3.24402H17.3003C17.8738 3.24402 18.4239 3.47186 18.8295 3.87743C19.235 4.28299 19.4629 4.83306 19.4629 5.40661V22.7074" stroke="#154367" stroke-width="2.16259" stroke-linecap="round" stroke-linejoin="round"/>
</svg>
