<svg width="26" height="26" viewBox="0 0 26 26" fill="none" xmlns="http://www.w3.org/2000/svg">
<path d="M16.2195 2.16248H6.48779C5.91423 2.16248 5.36417 2.39032 4.9586 2.79588C4.55304 3.20145 4.3252 3.75151 4.3252 4.32507V21.6258C4.3252 22.1994 4.55304 22.7494 4.9586 23.155C5.36417 23.5606 5.91423 23.7884 6.48779 23.7884H19.4634C20.0369 23.7884 20.587 23.5606 20.9925 23.155C21.3981 22.7494 21.6259 22.1994 21.6259 21.6258V7.56896L16.2195 2.16248Z" stroke="#154367" stroke-width="2.16259" stroke-linecap="round" stroke-linejoin="round"/>
<path d="M15.1387 2.16248V6.48766C15.1387 7.06122 15.3665 7.61128 15.7721 8.01685C16.1776 8.42241 16.7277 8.65026 17.3013 8.65026H21.6265" stroke="#154367" stroke-width="2.16259" stroke-linecap="round" stroke-linejoin="round"/>
<path d="M10.813 9.73157H8.65039" stroke="#154367" stroke-width="2.16259" stroke-linecap="round" stroke-linejoin="round"/>
<path d="M17.3008 14.0568H8.65039" stroke="#154367" stroke-width="2.16259" stroke-linecap="round" stroke-linejoin="round"/>
<path d="M17.3008 18.382H8.65039" stroke="#154367" stroke-width="2.16259" stroke-linecap="round" stroke-linejoin="round"/>
</svg>
