<svg width="22" height="22" viewBox="0 0 22 22" fill="none" xmlns="http://www.w3.org/2000/svg">
<path d="M10.8125 6.30737V9.9117" stroke="#0D244B" stroke-width="1.80216" stroke-linecap="round" stroke-linejoin="round"/>
<path d="M12.6141 18.9226V16.2194C12.6141 15.7414 12.4242 15.283 12.0862 14.9451C11.7483 14.6071 11.2899 14.4172 10.8119 14.4172C10.334 14.4172 9.87558 14.6071 9.53761 14.9451C9.19964 15.283 9.00977 15.7414 9.00977 16.2194V18.9226" stroke="#0D244B" stroke-width="1.80216" stroke-linecap="round" stroke-linejoin="round"/>
<path d="M12.6141 8.10962H9.00977" stroke="#0D244B" stroke-width="1.80216" stroke-linecap="round" stroke-linejoin="round"/>
<path d="M16.2191 9.91198H18.0212C18.4992 9.91198 18.9576 10.1019 19.2955 10.4398C19.6335 10.7778 19.8234 11.2362 19.8234 11.7141V17.1206C19.8234 17.5986 19.6335 18.057 19.2955 18.3949C18.9576 18.7329 18.4992 18.9228 18.0212 18.9228H3.60392C3.12596 18.9228 2.66757 18.7329 2.3296 18.3949C1.99163 18.057 1.80176 17.5986 1.80176 17.1206V9.0109C1.80176 8.53294 1.99163 8.07455 2.3296 7.73658C2.66757 7.39861 3.12596 7.20874 3.60392 7.20874H5.40608" stroke="#0D244B" stroke-width="1.80216" stroke-linecap="round" stroke-linejoin="round"/>
<path d="M16.2192 18.9226V4.50529C16.2192 4.02732 16.0293 3.56894 15.6914 3.23097C15.3534 2.89299 14.895 2.70313 14.4171 2.70312H7.20841C6.73045 2.70313 6.27206 2.89299 5.93409 3.23097C5.59612 3.56894 5.40625 4.02732 5.40625 4.50529V18.9226" stroke="#0D244B" stroke-width="1.80216" stroke-linecap="round" stroke-linejoin="round"/>
</svg>
