<svg width="26" height="26" viewBox="0 0 26 26" fill="none" xmlns="http://www.w3.org/2000/svg">
<path d="M21.625 10.8128C21.625 16.2118 15.6357 21.8345 13.6245 23.5711C13.4371 23.712 13.209 23.7881 12.9746 23.7881C12.7402 23.7881 12.5121 23.712 12.3247 23.5711C10.3135 21.8345 4.32422 16.2118 4.32422 10.8128C4.32422 8.51863 5.2356 6.31837 6.85785 4.69611C8.48011 3.07385 10.6804 2.16248 12.9746 2.16248C15.2688 2.16248 17.4691 3.07385 19.0913 4.69611C20.7136 6.31837 21.625 8.51863 21.625 10.8128Z" stroke="#E63946" stroke-width="2.16259" stroke-linecap="round" stroke-linejoin="round"/>
<path d="M12.9744 14.0567C14.7659 14.0567 16.2182 12.6044 16.2182 10.8129C16.2182 9.02131 14.7659 7.56897 12.9744 7.56897C11.1828 7.56897 9.73047 9.02131 9.73047 10.8129C9.73047 12.6044 11.1828 14.0567 12.9744 14.0567Z" stroke="#E63946" stroke-width="2.16259" stroke-linecap="round" stroke-linejoin="round"/>
</svg>
