<svg width="26" height="26" viewBox="0 0 26 26" fill="none" xmlns="http://www.w3.org/2000/svg">
<path d="M16.7351 13.938L18.3732 23.1571C18.3916 23.2657 18.3763 23.3773 18.3296 23.4769C18.2828 23.5766 18.2067 23.6596 18.1115 23.7149C18.0163 23.7701 17.9064 23.795 17.7967 23.7861C17.6869 23.7773 17.5825 23.7351 17.4974 23.6653L13.6263 20.7599C13.4395 20.6203 13.2124 20.5448 12.9792 20.5448C12.7459 20.5448 12.5189 20.6203 12.332 20.7599L8.45449 23.6643C8.36941 23.7339 8.26511 23.776 8.15551 23.7849C8.0459 23.7937 7.9362 23.7689 7.84103 23.7138C7.74587 23.6587 7.66977 23.5759 7.62289 23.4765C7.576 23.377 7.56057 23.2656 7.57864 23.1571L9.21572 13.938" stroke="#E63946" stroke-width="2.16259" stroke-linecap="round" stroke-linejoin="round"/>
<path d="M12.9761 15.1382C16.5592 15.1382 19.4638 12.2335 19.4638 8.65038C19.4638 5.06728 16.5592 2.1626 12.9761 2.1626C9.39296 2.1626 6.48828 5.06728 6.48828 8.65038C6.48828 12.2335 9.39296 15.1382 12.9761 15.1382Z" stroke="#E63946" stroke-width="2.16259" stroke-linecap="round" stroke-linejoin="round"/>
</svg>
