<svg width="26" height="26" viewBox="0 0 26 26" fill="none" xmlns="http://www.w3.org/2000/svg">
<path d="M23.0311 16.544C23.273 16.7851 23.465 17.0716 23.596 17.3871C23.7269 17.7025 23.7944 18.0407 23.7944 18.3822C23.7944 18.7238 23.7269 19.062 23.596 19.3774C23.465 19.6929 23.273 19.9794 23.0311 20.2204L20.2197 23.0318C19.9786 23.2738 19.6921 23.4657 19.3767 23.5967C19.0613 23.7277 18.7231 23.7951 18.3815 23.7951C18.04 23.7951 17.7018 23.7277 17.3863 23.5967C17.0709 23.4657 16.7844 23.2738 16.5433 23.0318L2.91896 9.40748C2.43298 8.91914 2.16016 8.25822 2.16016 7.56927C2.16016 6.88032 2.43298 6.21941 2.91896 5.73107L5.73033 2.91969C6.21867 2.43371 6.87959 2.16089 7.56854 2.16089C8.25749 2.16089 8.91841 2.43371 9.40674 2.91969L23.0311 16.544Z" stroke="#154367" stroke-width="2.16259" stroke-linecap="round" stroke-linejoin="round"/>
<path d="M15.6787 13.5164L17.8413 11.3538" stroke="#154367" stroke-width="2.16259" stroke-linecap="round" stroke-linejoin="round"/>
<path d="M12.4355 10.2725L14.5981 8.10986" stroke="#154367" stroke-width="2.16259" stroke-linecap="round" stroke-linejoin="round"/>
<path d="M9.19141 7.02856L11.354 4.86597" stroke="#154367" stroke-width="2.16259" stroke-linecap="round" stroke-linejoin="round"/>
<path d="M18.9229 16.7603L21.0854 14.5977" stroke="#154367" stroke-width="2.16259" stroke-linecap="round" stroke-linejoin="round"/>
</svg>
