<svg width="22" height="22" viewBox="0 0 22 22" fill="none" xmlns="http://www.w3.org/2000/svg">
<path d="M12.6151 18.9226V16.2194C12.6151 15.7414 12.4252 15.283 12.0872 14.9451C11.7493 14.6071 11.2909 14.4172 10.8129 14.4172C10.3349 14.4172 9.87655 14.6071 9.53858 14.9451C9.20061 15.283 9.01074 15.7414 9.01074 16.2194V18.9226" stroke="#0D244B" stroke-width="1.80216" stroke-linecap="round" stroke-linejoin="round"/>
<path d="M16.2197 4.50562V18.9229" stroke="#0D244B" stroke-width="1.80216" stroke-linecap="round" stroke-linejoin="round"/>
<path d="M3.60352 5.40643L10.0066 1.99134C10.2567 1.86634 10.5325 1.80127 10.8122 1.80127C11.0918 1.80127 11.3676 1.86634 11.6177 1.99134L18.0208 5.40643" stroke="#0D244B" stroke-width="1.80216" stroke-linecap="round" stroke-linejoin="round"/>
<path d="M5.40706 9.91211L2.23525 11.8467C2.1032 11.9271 1.99406 12.0401 1.91831 12.1749C1.84256 12.3097 1.80276 12.4617 1.80273 12.6163V17.1208C1.80273 17.5987 1.9926 18.0571 2.33058 18.3951C2.66855 18.733 3.12693 18.9229 3.6049 18.9229H18.0222C18.5002 18.9229 18.9585 18.733 19.2965 18.3951C19.6345 18.0571 19.8244 17.5987 19.8244 17.1208V12.6154C19.8242 12.4609 19.7843 12.3091 19.7086 12.1745C19.6328 12.0399 19.5238 11.927 19.3918 11.8467L16.22 9.91211" stroke="#0D244B" stroke-width="1.80216" stroke-linecap="round" stroke-linejoin="round"/>
<path d="M5.40625 4.50562V18.9229" stroke="#0D244B" stroke-width="1.80216" stroke-linecap="round" stroke-linejoin="round"/>
<path d="M10.8129 9.9117C11.8082 9.9117 12.6151 9.10484 12.6151 8.10953C12.6151 7.11423 11.8082 6.30737 10.8129 6.30737C9.8176 6.30737 9.01074 7.11423 9.01074 8.10953C9.01074 9.10484 9.8176 9.9117 10.8129 9.9117Z" stroke="#0D244B" stroke-width="1.80216" stroke-linecap="round" stroke-linejoin="round"/>
</svg>
