<svg width="26" height="26" viewBox="0 0 26 26" fill="none" xmlns="http://www.w3.org/2000/svg">
<path d="M21.6269 14.0567C21.6269 19.4632 17.8424 22.1665 13.3442 23.7343C13.1086 23.8142 12.8528 23.8103 12.6197 23.7235C8.11071 22.1665 4.32617 19.4632 4.32617 14.0567V6.48766C4.32617 6.20088 4.44009 5.92585 4.64288 5.72307C4.84566 5.52029 5.12069 5.40636 5.40747 5.40636C7.57006 5.40636 10.2733 4.10881 12.1548 2.46524C12.3838 2.26952 12.6752 2.16199 12.9765 2.16199C13.2778 2.16199 13.5693 2.26952 13.7983 2.46524C15.6906 4.11962 18.383 5.40636 20.5456 5.40636C20.8324 5.40636 21.1074 5.52029 21.3102 5.72307C21.513 5.92585 21.6269 6.20088 21.6269 6.48766V14.0567Z" stroke="#E63946" stroke-width="2.16259" stroke-linecap="round" stroke-linejoin="round"/>
</svg>
