<svg width="22" height="22" viewBox="0 0 22 22" fill="none" xmlns="http://www.w3.org/2000/svg">
<path d="M14.4176 9.01074C14.4176 9.96667 14.0379 10.8834 13.3619 11.5594C12.686 12.2353 11.7692 12.6151 10.8133 12.6151C9.85738 12.6151 8.94061 12.2353 8.26467 11.5594C7.58872 10.8834 7.20898 9.96667 7.20898 9.01074" stroke="#0D244B" stroke-width="1.80216" stroke-linecap="round" stroke-linejoin="round"/>
<path d="M2.7959 5.43701H18.8297" stroke="#0D244B" stroke-width="1.80216" stroke-linecap="round" stroke-linejoin="round"/>
<path d="M3.06356 4.92629C2.8296 5.23824 2.70312 5.61766 2.70312 6.00759V18.0217C2.70313 18.4997 2.89299 18.958 3.23097 19.296C3.56894 19.634 4.02732 19.8239 4.50529 19.8239H17.1204C17.5984 19.8239 18.0568 19.634 18.3947 19.296C18.7327 18.958 18.9226 18.4997 18.9226 18.0217V6.00759C18.9226 5.61766 18.7961 5.23824 18.5621 4.92629L16.76 2.52311C16.5921 2.29929 16.3744 2.11763 16.1242 1.99251C15.874 1.86739 15.598 1.80225 15.3183 1.80225H6.30745C6.02767 1.80225 5.75174 1.86739 5.5015 1.99251C5.25126 2.11763 5.03359 2.29929 4.86572 2.52311L3.06356 4.92629Z" stroke="#0D244B" stroke-width="1.80216" stroke-linecap="round" stroke-linejoin="round"/>
</svg>
