<svg width="24" height="24" viewBox="0 0 24 24" fill="none" xmlns="http://www.w3.org/2000/svg">
<path d="M3 18V13C3 12.4696 3.21071 11.9609 3.58579 11.5858C3.96086 11.2107 4.46957 11 5 11V8C5 6.93913 5.42143 5.92172 6.17157 5.17157C6.92172 4.42143 7.93913 4 9 4H15C16.0609 4 17.0783 4.42143 17.8284 5.17157C18.5786 5.92172 19 6.93913 19 8V11C19.5304 11 20.0391 11.2107 20.4142 11.5858C20.7893 11.9609 21 12.4696 21 13V18C21 18.5304 20.7893 19.0391 20.4142 19.4142C20.0391 19.7893 19.5304 20 19 20C18.4696 20 17.9609 19.7893 17.5858 19.4142C17.2107 19.0391 17 18.5304 17 18H7C7 18.5304 6.78929 19.0391 6.41421 19.4142C6.03914 19.7893 5.53043 20 5 20C4.46957 20 3.96086 19.7893 3.58579 19.4142C3.21071 19.0391 3 18.5304 3 18ZM9 6C8.46957 6 7.96086 6.21071 7.58579 6.58579C7.21071 6.96086 7 7.46957 7 8V11H17V8C17 7.46957 16.7893 6.96086 16.4142 6.58579C16.0391 6.21071 15.5304 6 15 6H9ZM6 15C6.26522 15 6.51957 14.8946 6.70711 14.7071C6.89464 14.5196 7 14.2652 7 14C7 13.7348 6.89464 13.4804 6.70711 13.2929C6.51957 13.1054 6.26522 13 6 13C5.73478 13 5.48043 13.1054 5.29289 13.2929C5.10536 13.4804 5 13.7348 5 14C5 14.2652 5.10536 14.5196 5.29289 14.7071C5.48043 14.8946 5.73478 15 6 15ZM18 15C18.2652 15 18.5196 14.8946 18.7071 14.7071C18.8946 14.5196 19 14.2652 19 14C19 13.7348 18.8946 13.4804 18.7071 13.2929C18.5196 13.1054 18.2652 13 18 13C17.7348 13 17.4804 13.1054 17.2929 13.2929C17.1054 13.4804 17 13.7348 17 14C17 14.2652 17.1054 14.5196 17.2929 14.7071C17.4804 14.8946 17.7348 15 18 15Z" fill="#628199"/>
</svg>
