<svg width="21" height="22" viewBox="0 0 21 22" fill="none" xmlns="http://www.w3.org/2000/svg">
<path d="M7.65625 9.25C7.65625 8.49579 7.95586 7.77247 8.48917 7.23917C9.02247 6.70586 9.74579 6.40625 10.5 6.40625C11.2542 6.40625 11.9775 6.70586 12.5108 7.23917C13.0441 7.77247 13.3438 8.49579 13.3438 9.25C13.3438 10.0042 13.0441 10.7275 12.5108 11.2608C11.9775 11.7941 11.2542 12.0938 10.5 12.0938C9.74579 12.0938 9.02247 11.7941 8.48917 11.2608C7.95586 10.7275 7.65625 10.0042 7.65625 9.25Z" fill="#154367"/>
<path fill-rule="evenodd" clip-rule="evenodd" d="M3.30216 8.26737C3.44771 6.50841 4.24911 4.86841 5.54738 3.67274C6.84565 2.47706 8.54593 1.81307 10.3109 1.8125H10.6889C12.4539 1.81307 14.1542 2.47706 15.4524 3.67274C16.7507 4.86841 17.5521 6.50841 17.6977 8.26737C17.8592 10.2312 17.2529 12.1812 16.0063 13.7072L11.8124 18.8365C11.6535 19.0311 11.4532 19.1878 11.2262 19.2955C10.9992 19.4032 10.7511 19.459 10.4999 19.459C10.2487 19.459 10.0006 19.4032 9.77359 19.2955C9.54659 19.1878 9.34637 19.0311 9.18741 18.8365L4.99441 13.7072C3.7475 12.1813 3.1409 10.2313 3.30216 8.26737ZM10.4999 5.09375C9.39761 5.09375 8.34045 5.53164 7.561 6.31109C6.78155 7.09054 6.34366 8.14769 6.34366 9.25C6.34366 10.3523 6.78155 11.4095 7.561 12.1889C8.34045 12.9684 9.39761 13.4062 10.4999 13.4062C11.6022 13.4062 12.6594 12.9684 13.4388 12.1889C14.2183 11.4095 14.6562 10.3523 14.6562 9.25C14.6562 8.14769 14.2183 7.09054 13.4388 6.31109C12.6594 5.53164 11.6022 5.09375 10.4999 5.09375Z" fill="#154367"/>
</svg>
