<svg width="20" height="20" viewBox="0 0 20 20" fill="none" xmlns="http://www.w3.org/2000/svg">
<path d="M2.5 5.15234C2.5 4.37891 3.12891 3.75 3.90234 3.75C4.27344 3.75 4.62891 3.89844 4.89453 4.16016L5.52734 4.79297C4.70703 6.3125 4.84766 8.21094 5.95312 9.59766L5.89844 9.64844C5.53125 10.0156 5.53125 10.6094 5.89844 10.9727C6.26562 11.3359 6.85937 11.3398 7.22266 10.9727L13.4766 4.72656C13.8438 4.35938 13.8438 3.76562 13.4766 3.40234C13.1094 3.03906 12.5156 3.03516 12.1523 3.40234L12.1016 3.45312C10.7148 2.34766 8.8125 2.20703 7.29688 3.02734L6.66016 2.39453C5.92969 1.66016 4.9375 1.25 3.90234 1.25C1.74609 1.25 0 2.99609 0 5.15234V17.5C0 18.1914 0.558594 18.75 1.25 18.75C1.94141 18.75 2.5 18.1914 2.5 17.5V5.15234ZM10 13.75C10.3315 13.75 10.6495 13.6183 10.8839 13.3839C11.1183 13.1495 11.25 12.8315 11.25 12.5C11.25 12.1685 11.1183 11.8505 10.8839 11.6161C10.6495 11.3817 10.3315 11.25 10 11.25C9.66848 11.25 9.35054 11.3817 9.11612 11.6161C8.8817 11.8505 8.75 12.1685 8.75 12.5C8.75 12.8315 8.8817 13.1495 9.11612 13.3839C9.35054 13.6183 9.66848 13.75 10 13.75ZM12.5 16.25C12.5 15.9185 12.3683 15.6005 12.1339 15.3661C11.8995 15.1317 11.5815 15 11.25 15C10.9185 15 10.6005 15.1317 10.3661 15.3661C10.1317 15.6005 10 15.9185 10 16.25C10 16.5815 10.1317 16.8995 10.3661 17.1339C10.6005 17.3683 10.9185 17.5 11.25 17.5C11.5815 17.5 11.8995 17.3683 12.1339 17.1339C12.3683 16.8995 12.5 16.5815 12.5 16.25ZM12.5 11.25C12.8315 11.25 13.1495 11.1183 13.3839 10.8839C13.6183 10.6495 13.75 10.3315 13.75 10C13.75 9.66848 13.6183 9.35054 13.3839 9.11612C13.1495 8.8817 12.8315 8.75 12.5 8.75C12.1685 8.75 11.8505 8.8817 11.6161 9.11612C11.3817 9.35054 11.25 9.66848 11.25 10C11.25 10.3315 11.3817 10.6495 11.6161 10.8839C11.8505 11.1183 12.1685 11.25 12.5 11.25ZM15 13.75C15 13.4185 14.8683 13.1005 14.6339 12.8661C14.3995 12.6317 14.0815 12.5 13.75 12.5C13.4185 12.5 13.1005 12.6317 12.8661 12.8661C12.6317 13.1005 12.5 13.4185 12.5 13.75C12.5 14.0815 12.6317 14.3995 12.8661 14.6339C13.1005 14.8683 13.4185 15 13.75 15C14.0815 15 14.3995 14.8683 14.6339 14.6339C14.8683 14.3995 15 14.0815 15 13.75ZM15 8.75C15.3315 8.75 15.6495 8.6183 15.8839 8.38388C16.1183 8.14946 16.25 7.83152 16.25 7.5C16.25 7.16848 16.1183 6.85054 15.8839 6.61612C15.6495 6.3817 15.3315 6.25 15 6.25C14.6685 6.25 14.3505 6.3817 14.1161 6.61612C13.8817 6.85054 13.75 7.16848 13.75 7.5C13.75 7.83152 13.8817 8.14946 14.1161 8.38388C14.3505 8.6183 14.6685 8.75 15 8.75ZM17.5 11.25C17.5 10.9185 17.3683 10.6005 17.1339 10.3661C16.8995 10.1317 16.5815 10 16.25 10C15.9185 10 15.6005 10.1317 15.3661 10.3661C15.1317 10.6005 15 10.9185 15 11.25C15 11.5815 15.1317 11.8995 15.3661 12.1339C15.6005 12.3683 15.9185 12.5 16.25 12.5C16.5815 12.5 16.8995 12.3683 17.1339 12.1339C17.3683 11.8995 17.5 11.5815 17.5 11.25ZM18.75 10C19.0815 10 19.3995 9.8683 19.6339 9.63388C19.8683 9.39946 20 9.08152 20 8.75C20 8.41848 19.8683 8.10054 19.6339 7.86612C19.3995 7.6317 19.0815 7.5 18.75 7.5C18.4185 7.5 18.1005 7.6317 17.8661 7.86612C17.6317 8.10054 17.5 8.41848 17.5 8.75C17.5 9.08152 17.6317 9.39946 17.8661 9.63388C18.1005 9.8683 18.4185 10 18.75 10Z" fill="#628199"/>
</svg>
